<?xml version="1.0"?>
<svg xmlns="http://www.w3.org/2000/svg" xmlns:xlink="http://www.w3.org/1999/xlink" xmlns:svgjs="http://svgjs.com/svgjs" version="1.1" width="512" height="512" x="0" y="0" viewBox="0 0 512 512" style="enable-background:new 0 0 512 512" xml:space="preserve" class=""><g><g xmlns="http://www.w3.org/2000/svg"><path d="m467 0h-422c-24.813 0-45 20.187-45 45v322c0 24.813 20.187 45 45 45h135.099c-2.81 23.533-12.164 46.07-27.047 64.673l-4.262 5.327h-32.79c-8.284 0-15 6.716-15 15s6.716 15 15 15h280c8.284 0 15-6.716 15-15s-6.716-15-15-15h-32.791l-4.262-5.327c-14.882-18.603-24.237-41.14-27.047-64.673h135.1c24.813 0 45-20.187 45-45v-322c0-24.813-20.187-45-45-45zm-422 30h422c8.271 0 15 6.729 15 15v265h-452v-265c0-8.271 6.729-15 15-15zm280.909 452h-139.818c13.459-21.043 21.785-45.128 24.186-70h91.447c2.401 24.872 10.726 48.957 24.185 70zm141.091-100h-422c-8.271 0-15-6.729-15-15v-27h452v27c0 8.271-6.729 15-15 15z" fill="#08cfbe" data-original="#000000" style="" class=""/><path d="m71 220.729h59.911c-.075 10.323-.154 20.243-.23 29.143-.071 8.283 6.586 15.057 14.87 15.128.044.001.087.001.132.001 8.224-.001 14.926-6.631 14.997-14.871.046-5.401.137-16.145.234-29.4h4.28c8.284 0 15-6.716 15-15s-6.716-15-15-15h-4.08c.216-36.473.338-76.188-.111-81.578-.933-11.183-7.598-20.286-16.98-23.191-9.278-2.875-19.207.788-26.549 9.797-8.646 10.607-51.171 87.434-59.608 102.727-2.563 4.646-2.481 10.303.217 14.872 2.698 4.568 7.61 7.372 12.917 7.372zm60.311-91.031c.024 15.089-.065 37.646-.202 61.03h-34.628c13.244-23.719 26.245-46.557 34.83-61.03z" fill="#08cfbe" data-original="#000000" style="" class=""/><path d="m346.806 220.729h59.911c-.075 10.323-.154 20.243-.23 29.143-.071 8.283 6.586 15.057 14.87 15.128.044.001.088.001.132.001 8.224-.001 14.926-6.631 14.997-14.871.046-5.401.136-16.145.234-29.4h4.28c8.284 0 15-6.716 15-15s-6.716-15-15-15h-4.08c.217-36.473.338-76.188-.111-81.577-.932-11.184-7.596-20.287-16.979-23.192-9.281-2.876-19.208.786-26.549 9.797-8.646 10.607-51.172 87.434-59.609 102.727-2.563 4.647-2.481 10.303.217 14.872 2.698 4.568 7.61 7.372 12.917 7.372zm60.31-91.031c.024 15.089-.064 37.646-.202 61.03h-34.627c13.243-23.719 26.244-46.557 34.829-61.03z" fill="#08cfbe" data-original="#000000" style="" class=""/><path d="m256 265c31.251 0 56.675-25.425 56.675-56.676v-66.648c0-31.251-25.424-56.676-56.675-56.676s-56.675 25.425-56.675 56.676v66.648c0 31.251 25.424 56.676 56.675 56.676zm-26.675-123.324c0-14.709 11.966-26.676 26.675-26.676s26.675 11.967 26.675 26.676v66.648c0 14.709-11.966 26.676-26.675 26.676s-26.675-11.967-26.675-26.676z" fill="#08cfbe" data-original="#000000" style="" class=""/></g></g></svg>
